<svg xmlns="http://www.w3.org/2000/svg">
  <symbol id="icon-heart" viewBox="0 0 64 64">
		<path d="M48,3c-6.957,0-13.005,3.527-16,8.674C29.005,6.527,22.957,3,16,3C5.496,3,0,12.055,0,21
		c0,20.892,29.706,38.956,30.971,39.715C31.288,60.905,31.644,61,32,61s0.712-0.095,1.029-0.285C34.294,59.956,64,41.892,64,21
		C64,12.055,58.504,3,48,3z M31.999,56.636C26.83,53.301,4,37.625,4,21C4,14.257,7.755,7,16,7c6.733,0,14,4.588,14,12
		c0,1.104,0.896,2,2,2s2-0.896,2-2c0-7.412,7.267-12,14-12c8.245,0,12,7.257,12,14C60,37.605,37.166,53.299,31.999,56.636z"/>
  </symbol>
  <symbol id="icon-shopping_cart" viewBox="0 0 64 64">
		<path d="M0,10c0,1.104,0.896,2,2,2h6.166L12,56.173c0,0.003,0,0.005,0,0.007c0,4.328,3.645,7.82,7.996,7.82
		c3.719,0,6.849-2.556,7.74-6h8.527c0.892,3.444,4.017,6,7.736,6c4.411,0,8-3.589,8-8s-3.589-8-8-8c-3.72,0-6.845,2.556-7.736,6
		h-8.527c-0.892-3.444-4.017-6-7.736-6c-1.696,0-3.268,0.534-4.563,1.438l-0.561-6.45C14.917,42.99,14.956,43,14.998,43
		c0.033,0,0.066-0.001,0.1-0.002l41-2c0.855-0.042,1.59-0.625,1.825-1.448l6-21c0.173-0.604,0.052-1.253-0.326-1.754
		S62.628,16,62,16H12.529l-0.537-6.173C11.902,8.793,11.037,8,10,8H2C0.896,8,0,8.896,0,10z M44,52c2.206,0,4,1.794,4,4
		s-1.794,4-4,4s-4-1.794-4-4S41.794,52,44,52z M20,52c2.206,0,4,1.794,4,4s-1.794,4-4,4s-4-1.794-4-4S17.794,52,20,52z M59.349,20
		l-4.878,17.072l-39.568,1.93c-0.127,0.006-0.249,0.027-0.368,0.056L12.877,20H59.349z"/>
  </symbol>
  <symbol id="icon-youtube" viewBox="0 0 640 640">
		<path d="M320 73.6c-314.496 0-320 27.968-320 246.4s5.504 246.4 320 246.4 320-27.968 320-246.4-5.504-246.4-320-246.4zM422.56 
		330.688l-143.68 67.072c-12.576 5.824-22.88-0.704-22.88-14.592v-126.336c0-13.856 10.304-20.416 22.88-14.592l143.68 67.072c12.576 5.888 12.576 15.488 0 21.376z"></path>
  </symbol>
  <symbol id="icon-close" viewBox="0 0 24 24">
		<path d="M6.99486 7.00636C6.60433 7.39689 6.60433 8.03005 6.99486 8.42058L10.58 12.0057L6.99486 15.5909C6.60433 15.9814 6.60433 
		16.6146 6.99486 17.0051C7.38538 17.3956 8.01855 17.3956 8.40907 17.0051L11.9942 13.4199L15.5794 17.0051C15.9699 17.3956 16.6031 
		17.3956 16.9936 17.0051C17.3841 16.6146 17.3841 15.9814 16.9936 15.5909L13.4084 12.0057L16.9936 8.42059C17.3841 8.03007 17.3841 
		7.3969 16.9936 7.00638C16.603 6.61585 15.9699 6.61585 15.5794 7.00638L11.9942 10.5915L8.40907 7.00636C8.01855 6.61584 7.38538 6.61584 6.99486 7.00636Z"/>
  </symbol>
  <symbol id="icon-search" viewBox="0 0 20 20">
		<path d="M17.545 15.467l-3.779-3.779a6.15 6.15 0 0 0 .898-3.21c0-3.417-2.961-6.377-6.378-6.377A6.185 6.185 0 0 0 2.1 8.287c0 3.416 
		2.961 6.377 6.377 6.377a6.15 6.15 0 0 0 3.115-.844l3.799 3.801a.953.953 0 0 0 1.346 0l.943-.943c.371-.371.236-.84-.135-1.211zM4.004 
		8.287a4.282 4.282 0 0 1 4.282-4.283c2.366 0 4.474 2.107 4.474 4.474a4.284 4.284 0 0 1-4.283 4.283c-2.366-.001-4.473-2.109-4.473-4.474z"></path>
  </symbol>
  <symbol id="icon-done" viewBox="-3.5 0 19 19">
		<path d="M4.63 15.638a1.028 1.028 0 0 1-.79-.37L.36 11.09a1.03 1.03 0 1 1 1.58-1.316l2.535 3.043L9.958 3.32a1.029 1.029 0 0 1 1.783 1.03L5.52 15.122a1.03 1.03 0 0 1-.803.511.89.89 0 0 1-.088.004z"/>
  </symbol>
  <symbol id="icon-done2" viewBox="0 0 42 42">
		<path d="M39.04,7.604l-2.398-1.93c-1.182-0.95-1.869-0.939-2.881,0.311L16.332,27.494l-8.111-6.739
		c-1.119-0.94-1.819-0.89-2.739,0.26l-1.851,2.41c-0.939,1.182-0.819,1.853,0.291,2.78l11.56,9.562c1.19,1,1.86,0.897,2.78-0.222
		l21.079-25.061C40.331,9.294,40.271,8.583,39.04,7.604z"/>
  </symbol>
</svg>
